<svg id="Layer_1" data-name="Layer 1" xmlns="http://www.w3.org/2000/svg" viewBox="0 0 152.67 219.43"><defs><style>.cls-1{fill:#1a1a1a;stroke:#333;stroke-miterlimit:10;stroke-width:16px;}.cls-2{fill:#bc531e;}.cls-3{fill:#fb362b;}.cls-4{fill:#8c1912;}.cls-5{fill:#ffcb8f;}.cls-6{fill:#f3fffb;}.cls-7{fill:#99252e;}</style></defs><title>logo</title><path class="cls-1" d="M505.09,371.51l-2,11.84-58.73,67.12s-15.79-6.42-16.78-13.33-5.92-50.83-5.92-50.83,45.4-34.55,48.37-33.56,26.65-7.4,30.6,3.45S505.09,371.51,505.09,371.51Z" transform="translate(-396.96 -275.1)"/><path class="cls-1" d="M412.31,391.25a42.86,42.86,0,0,1,2-11.84,46.26,46.26,0,0,1,10.36-17.27,56.87,56.87,0,0,1,18.26-13.82,55,55,0,0,1,14.31-4.44s2.47-4.94,4.44-9.38,9.87-23.69,16.29-32.08,15.79-19.25,31.09-19.25,19.25,15.79,20.23,19.74,5.92,39-24.68,70.57a19.21,19.21,0,0,0-14.31-10.86c-10.38-1.89-25.17,1-30.1,3.45s-17.77,6.91-33.56,26.65c0,0-8.88-3.95-14.31-1Z" transform="translate(-396.96 -275.1)"/><path class="cls-1" d="M517.92,357.2c9.38-17.27,8.39-20.73,11.84-33.07,1.36-4.85,4.44-41.46-20.56-41S470,318.71,464.62,331a285.17,285.17,0,0,1-15.3,29.61c-2,3-13.33,21.71-13.33,21.71s14.31-12.83,23.69-15.79,18.26-4.44,23.69-4.44,13.33,1.48,18.75,7.4c0,0,1,1.48,2.47,3.95C504.6,373.49,514.55,363.41,517.92,357.2Z" transform="translate(-396.96 -275.1)"/><path class="cls-1" d="M435.5,435.67s.49-4.94,2.47-7.4a99.46,99.46,0,0,1,7.4-7.4s-10.36-19.74-13.82-23.2-9.38-11.84-19.25-5.92-7.9,18.75-4.94,25.66,6.91,12.34,13.33,16.29S430.57,439.62,435.5,435.67Z" transform="translate(-396.96 -275.1)"/><path class="cls-1" d="M459.68,409s-11.84-10.86-13.33-18.26-.49-11.84,1.48-14.31a16.79,16.79,0,0,1,11.84-6.91c6.91-1,15.79,0,25.66,6.91,0,0,3.95-8.39,9.87-8.39s7.9,1.48,9.38,4.44S511,387.8,511,392.73Z" transform="translate(-396.96 -275.1)"/><path class="cls-1" d="M437,446.53s-3.45-15.3,0-22.7h4.44s15.3-13.82,23.2-20.23,13.33-9.38,17.77-11.35a47.44,47.44,0,0,1,14.31-3.95A34.13,34.13,0,0,1,510,389.77c2.47,1,3.45,3,6.91,4.44s10.36,4.94,13.33,8.39,3.45,4.44,5.43,6.91,4.94,4.44,5.43,6.42,3.45,6.42-13.33,14.81c0,0,4.44,13.82,9.38,21.71a13.32,13.32,0,0,1-1,15.79,28.91,28.91,0,0,1-5.43,4.44,13.86,13.86,0,0,0-3.95,3.95A49.65,49.65,0,0,1,504.1,486c-13.33,2-37-2-45.9-7.9S441.92,464.79,437,446.53Z" transform="translate(-396.96 -275.1)"/><path class="cls-1" d="M447.84,437.15s10.86,2.47,35.53-9.87,38-13.33,41.46-13.33,11.84,2.47,9.87,6.42-7.4,7.9-10.86,9.38c0,0-.49,2,8.39,23.2s-29.61,20.23-38,19.74S463.14,468.24,447.84,437.15Z" transform="translate(-396.96 -275.1)"/><path class="cls-2" d="M505.09,371.51l-2,11.84-58.73,67.12s-15.79-6.42-16.78-13.33-5.92-50.83-5.92-50.83,45.4-34.55,48.37-33.56,26.65-7.4,30.6,3.45S505.09,371.51,505.09,371.51Z" transform="translate(-396.96 -275.1)"/><path class="cls-3" d="M412.31,391.25a42.86,42.86,0,0,1,2-11.84,46.26,46.26,0,0,1,10.36-17.27,56.87,56.87,0,0,1,18.26-13.82,55,55,0,0,1,14.31-4.44s2.47-4.94,4.44-9.38,9.87-23.69,16.29-32.08,15.79-19.25,31.09-19.25,19.25,15.79,20.23,19.74,5.92,39-24.68,70.57a19.21,19.21,0,0,0-14.31-10.86c-10.38-1.89-25.17,1-30.1,3.45s-17.77,6.91-33.56,26.65c0,0-8.88-3.95-14.31-1Z" transform="translate(-396.96 -275.1)"/><path class="cls-4" d="M517.92,357.2c9.38-17.27,8.39-20.73,11.84-33.07,1.36-4.85,4.44-41.46-20.56-41S470,318.71,464.62,331a285.17,285.17,0,0,1-15.3,29.61c-2,3-13.33,21.71-13.33,21.71s14.31-12.83,23.69-15.79,18.26-4.44,23.69-4.44,13.33,1.48,18.75,7.4c0,0,1,1.48,2.47,3.95C504.6,373.49,514.55,363.41,517.92,357.2Z" transform="translate(-396.96 -275.1)"/><path class="cls-5" d="M435.5,435.67s.49-4.94,2.47-7.4a99.46,99.46,0,0,1,7.4-7.4s-10.36-19.74-13.82-23.2-9.38-11.84-19.25-5.92-7.9,18.75-4.94,25.66,6.91,12.34,13.33,16.29S430.57,439.62,435.5,435.67Z" transform="translate(-396.96 -275.1)"/><path class="cls-6" d="M459.68,409s-11.84-10.86-13.33-18.26-.49-11.84,1.48-14.31a16.79,16.79,0,0,1,11.84-6.91c6.91-1,15.79,0,25.66,6.91,0,0,3.95-8.39,9.87-8.39s7.9,1.48,9.38,4.44S511,387.8,511,392.73Z" transform="translate(-396.96 -275.1)"/><path class="cls-5" d="M437,446.53s-3.45-15.3,0-22.7h4.44s15.3-13.82,23.2-20.23,13.33-9.38,17.77-11.35a47.44,47.44,0,0,1,14.31-3.95A34.13,34.13,0,0,1,510,389.77c2.47,1,3.45,3,6.91,4.44s10.36,4.94,13.33,8.39,3.45,4.44,5.43,6.91,4.94,4.44,5.43,6.42,3.45,6.42-13.33,14.81c0,0,4.44,13.82,9.38,21.71a13.32,13.32,0,0,1-1,15.79,28.91,28.91,0,0,1-5.43,4.44,13.86,13.86,0,0,0-3.95,3.95A49.65,49.65,0,0,1,504.1,486c-13.33,2-37-2-45.9-7.9S441.92,464.79,437,446.53Z" transform="translate(-396.96 -275.1)"/><path class="cls-7" d="M447.84,437.15s10.86,2.47,35.53-9.87,38-13.33,41.46-13.33,11.84,2.47,9.87,6.42-7.4,7.9-10.86,9.38c0,0-.49,2,8.39,23.2s-29.61,20.23-38,19.74S463.14,468.24,447.84,437.15Z" transform="translate(-396.96 -275.1)"/></svg>