<svg id="Layer_1" data-name="Layer 1" xmlns="http://www.w3.org/2000/svg" viewBox="0 0 1297.8 428.19"><defs><style>.cls-1{fill:#1a1a1a;stroke:#333;stroke-miterlimit:10;stroke-width:16px;}.cls-2{fill:#bc531e;}.cls-3{fill:#fb362b;}.cls-4{fill:#8c1912;}.cls-5{fill:#ffcb8f;}.cls-6{fill:#f3fffb;}.cls-7{fill:#99252e;}.cls-8{font-size:150px;fill:#fff;font-family:MyriadPro-Regular, Myriad Pro;}.cls-9{letter-spacing:0em;}.cls-10{letter-spacing:0em;}.cls-11{letter-spacing:0em;}.cls-12{letter-spacing:0.01em;}.cls-13{letter-spacing:-0.04em;}.cls-14{letter-spacing:-0.01em;}</style></defs><title>logo</title><path class="cls-1" d="M630,467l-4,24L507,627s-32-13-34-27-12-103-12-103,92-70,98-68,54-15,62,7S630,467,630,467Z" transform="translate(-419.12 -279.85)"/><path class="cls-1" d="M442,507a86.85,86.85,0,0,1,4-24c5.41-17.09,14.74-27.9,21-35a115.22,115.22,0,0,1,37-28,111.41,111.41,0,0,1,29-9s5-10,9-19,20-48,33-65,32-39,63-39,39,32,41,40,12,79-50,143c0,0-7-18-29-22-21-3.82-51,2-61,7s-36,14-68,54c0,0-18-8-29-2Z" transform="translate(-419.12 -279.85)"/><path class="cls-1" d="M656,438c19-35,17-42,24-67,2.75-9.82,9-84-41.67-83.14S559,360,548,385s-27,54-31,60-27,44-27,44,29-26,48-32,37-9,48-9,27,3,38,15c0,0,2,3,5,8C629,471,649.17,450.58,656,438Z" transform="translate(-419.12 -279.85)"/><path class="cls-1" d="M489,597s1-10,5-15,15-15,15-15-21-40-28-47-19-24-39-12-16,38-10,52,14,25,27,33S479,605,489,597Z" transform="translate(-419.12 -279.85)"/><path class="cls-1" d="M538,543s-24-22-27-37-1-24,3-29,10-12,24-14,32,0,52,14c0,0,8-17,20-17s16,3,19,9,13,31,13,41Z" transform="translate(-419.12 -279.85)"/><path class="cls-1" d="M492,619s-7-31,0-46h9s31-28,47-41,27-19,36-23a96.12,96.12,0,0,1,29-8c10-1,22,1,27,3s7,6,14,9,21,10,27,17,7,9,11,14,10,9,11,13,7,13-27,30c0,0,9,28,19,44s0,30-2,32a58.58,58.58,0,0,1-11,9c-5,3-7,7-8,8s-19,15-46,19-75-4-93-16S502,656,492,619Z" transform="translate(-419.12 -279.85)"/><path class="cls-1" d="M514,600s22,5,72-20,77-27,84-27,24,5,20,13-15,16-22,19c0,0-1,4,17,47s-60,41-77,40S545,663,514,600Z" transform="translate(-419.12 -279.85)"/><path class="cls-2" d="M630,467l-4,24L507,627s-32-13-34-27-12-103-12-103,92-70,98-68,54-15,62,7S630,467,630,467Z" transform="translate(-419.12 -279.85)"/><path class="cls-3" d="M442,507a86.85,86.85,0,0,1,4-24c5.41-17.09,14.74-27.9,21-35a115.22,115.22,0,0,1,37-28,111.41,111.41,0,0,1,29-9s5-10,9-19,20-48,33-65,32-39,63-39,39,32,41,40,12,79-50,143c0,0-7-18-29-22-21-3.82-51,2-61,7s-36,14-68,54c0,0-18-8-29-2Z" transform="translate(-419.12 -279.85)"/><path class="cls-4" d="M656,438c19-35,17-42,24-67,2.75-9.82,9-84-41.67-83.14S559,360,548,385s-27,54-31,60-27,44-27,44,29-26,48-32,37-9,48-9,27,3,38,15c0,0,2,3,5,8C629,471,649.17,450.58,656,438Z" transform="translate(-419.12 -279.85)"/><path class="cls-5" d="M489,597s1-10,5-15,15-15,15-15-21-40-28-47-19-24-39-12-16,38-10,52,14,25,27,33S479,605,489,597Z" transform="translate(-419.12 -279.85)"/><path class="cls-6" d="M538,543s-24-22-27-37-1-24,3-29,10-12,24-14,32,0,52,14c0,0,8-17,20-17s16,3,19,9,13,31,13,41Z" transform="translate(-419.12 -279.85)"/><path class="cls-5" d="M492,619s-7-31,0-46h9s31-28,47-41,27-19,36-23a96.12,96.12,0,0,1,29-8c10-1,22,1,27,3s7,6,14,9,21,10,27,17,7,9,11,14,10,9,11,13,7,13-27,30c0,0,9,28,19,44s0,30-2,32a58.58,58.58,0,0,1-11,9c-5,3-7,7-8,8s-19,15-46,19-75-4-93-16S502,656,492,619Z" transform="translate(-419.12 -279.85)"/><path class="cls-7" d="M514,600s22,5,72-20,77-27,84-27,24,5,20,13-15,16-22,19c0,0-1,4,17,47s-60,41-77,40S545,663,514,600Z" transform="translate(-419.12 -279.85)"/><text class="cls-8" transform="translate(319.22 272.82)">u<tspan class="cls-9" x="82.65" y="0">r</tspan><tspan x="132.3" y="0">boit</tspan><tspan class="cls-10" x="384.74" y="0">r</tspan><tspan class="cls-11" x="434.39" y="0">ic</tspan><tspan class="cls-12" x="536.69" y="0">k</tspan><tspan class="cls-13" x="608.99" y="0">y</tspan><tspan x="673.79" y="0">.</tspan><tspan class="cls-14" x="704.84" y="0">c</tspan><tspan x="771.14" y="0">om</tspan></text></svg>